<svg width="20" height="20" viewBox="0 0 20 20" fill="none" xmlns="http://www.w3.org/2000/svg">
                                <path d="M2.78546 6.48195C2.97391 6.02698 3.25014 5.61358 3.59837 5.26536C3.94659 4.91713 4.35998 4.64091 4.81496 4.45245C5.26993 4.26399 5.75757 4.16699 6.25003 4.16699C6.74249 4.16699 7.23013 4.26399 7.68511 4.45245C8.14008 4.64091 8.55348 4.91713 8.9017 5.26536L10 6.36369L11.0984 5.26536C11.8016 4.56209 12.7555 4.167 13.75 4.167C14.7446 4.167 15.6984 4.56209 16.4017 5.26536C17.105 5.96862 17.5001 6.92246 17.5001 7.91703C17.5001 8.91159 17.105 9.86543 16.4017 10.5687L10 16.9704L3.59837 10.5687C3.25014 10.2205 2.97391 9.80707 2.78546 9.3521C2.597 8.89712 2.5 8.40949 2.5 7.91703C2.5 7.42456 2.597 6.93693 2.78546 6.48195Z" stroke="#2DC28D" stroke-width="1.6" stroke-linecap="round" stroke-linejoin="round"/>
                            </svg>